<?xml version="1.0" encoding="iso-8859-1"?>
<!-- Uploaded to: SVG Repo, www.svgrepo.com, Generator: SVG Repo Mixer Tools -->
<!DOCTYPE svg PUBLIC "-//W3C//DTD SVG 1.1//EN" "http://www.w3.org/Graphics/SVG/1.1/DTD/svg11.dtd">
<svg fill="#000000" version="1.1" id="Capa_1" xmlns="http://www.w3.org/2000/svg" xmlns:xlink="http://www.w3.org/1999/xlink" 
	 width="800px" height="800px" viewBox="0 0 488.893 488.893"
	 xml:space="preserve">
<g>
	<g>
		<path d="M392.575,132.498c0.555-7.965,2.161-54.19-30.591-90.298C336.597,14.201,298.107,0,247.617,0
			c-50.375,0-89.476,14.114-116.222,41.941c-36.873,38.384-35.314,88.463-35.257,89.82v204.131h38.25V131.112
			c0-0.364-0.755-36.577,24.901-62.979c19.268-19.823,48.979-29.873,88.328-29.873c39.054,0,67.913,9.878,85.775,29.347
			c23.868,26.02,21.048,62.042,21.028,62.3l-0.096,205.986h38.25V132.498z"/>
		<polygon points="222,202.018 208.593,259.393 291.261,259.393 277.854,202.018 		"/>
		<polygon points="188.493,345.455 311.361,345.455 295.727,278.518 204.127,278.518 		"/>
		<polygon points="154.976,488.893 344.878,488.893 320.302,383.705 179.552,383.705 		"/>
	</g>
</g>
</svg>